<svg xmlns="http://www.w3.org/2000/svg" xmlns:xlink="http://www.w3.org/1999/xlink" version="1.1" id="Laag_1" x="0px" y="0px" viewBox="0 0 340 170" enable-background="new 0 0 340 170" xml:space="preserve"><g><g><g><path fill="#374950" d="M38.452,80.009l16.365,35.649h-2.871l-5.6-12.238h-17.31l-5.579,12.238h-2.872L36.95,80.009H38.452z      M45.303,101.141l-7.627-16.672l-7.601,16.672H45.303z"/><path fill="#374950" d="M59.098,80.262h9.071c3.8,0,6.705,0.823,8.715,2.471c2.011,1.647,3.016,3.873,3.016,6.677     c0,4.087-2.247,6.959-6.74,8.614c1.165,0.558,2.736,2.356,4.712,5.396l8.007,12.238h-3.24l-6.165-9.7     c-2.061-3.245-3.665-5.269-4.813-6.071s-2.828-1.205-5.04-1.205h-4.787v16.977h-2.737V80.262z M61.835,82.542v13.859h5.877     c2.99,0,5.275-0.603,6.854-1.812c1.58-1.206,2.37-2.918,2.37-5.13c0-2.18-0.803-3.875-2.407-5.093     c-1.605-1.217-3.91-1.825-6.917-1.825H61.835z"/><path fill="#374950" d="M118.312,82.771v2.99c-4.291-2.281-8.498-3.42-12.619-3.42c-4.391,0-8.065,1.494-11.021,4.483     c-2.958,2.99-4.435,6.724-4.435,11.199c0,4.526,1.487,8.252,4.459,11.175c2.973,2.921,6.764,4.382,11.376,4.382     c3.852,0,8.049-1.207,12.593-3.622v2.837c-4.19,2.213-8.369,3.319-12.542,3.319c-5.388,0-9.877-1.727-13.466-5.183     c-3.59-3.453-5.386-7.755-5.386-12.908c0-5.185,1.834-9.518,5.499-12.998c3.666-3.48,8.032-5.22,13.1-5.22     C109.857,79.806,114.004,80.794,118.312,82.771z"/><path fill="#374950" d="M153.074,80.262v35.396h-2.761V98.886h-23.615v16.772h-2.737V80.262h2.737v16.343h23.615V80.262H153.074z     "/><path fill="#374950" d="M163.971,80.262v35.396h-2.737V80.262H163.971z"/><path fill="#374950" d="M188.244,96.701l13.445-16.439h2.77v35.396h-2.762V84.265l-13.467,16.546l-13.518-16.546v31.394h-2.736     V80.262h2.738L188.244,96.701z"/><path fill="#374950" d="M231.949,80.262v2.28h-16.566v14.164h16.137v2.306h-16.137v14.367h16.973v2.279h-19.711V80.262H231.949z"/><path fill="#374950" d="M238.031,80.262h12.391c6.266,0,11.051,1.646,14.354,4.941c3.303,3.293,4.953,7.549,4.953,12.77     c0,5.118-1.635,9.346-4.902,12.682s-7.91,5.004-13.924,5.004h-12.871V80.262z M240.768,82.542v30.837h9.984     c4.578,0,8.391-1.407,11.438-4.22c3.049-2.811,4.576-6.541,4.576-11.187c0-4.544-1.506-8.251-4.51-11.122     c-3.01-2.872-6.904-4.309-11.684-4.309H240.768z"/><path fill="#374950" d="M295.801,80.262v2.28h-16.57v14.164h16.139v2.306H279.23v14.367h16.977v2.279h-19.713V80.262H295.801z"/><path fill="#374950" d="M318.529,82.035v3.016c-3.072-1.807-5.719-2.71-7.932-2.71c-2.127,0-3.904,0.646-5.332,1.938     s-2.141,2.893-2.141,4.801c0,1.368,0.422,2.603,1.268,3.7c0.842,1.099,2.607,2.153,5.295,3.166     c2.684,1.014,4.643,1.859,5.877,2.534c1.232,0.678,2.281,1.655,3.143,2.939c0.861,1.283,1.293,2.948,1.293,4.991     c0,2.721-0.998,5.017-2.99,6.893c-1.994,1.875-4.426,2.812-7.299,2.812c-2.939,0-5.961-1.029-9.068-3.091v-3.219     c3.426,2.518,6.398,3.775,8.918,3.775c2.092,0,3.865-0.679,5.309-2.039c1.441-1.36,2.166-3.028,2.166-5.004     c0-1.504-0.447-2.859-1.342-4.068c-0.898-1.208-2.713-2.337-5.447-3.387c-2.736-1.05-4.691-1.896-5.865-2.537     c-1.176-0.642-2.172-1.558-2.99-2.748c-0.822-1.189-1.23-2.723-1.23-4.598c0-2.598,0.996-4.813,2.988-6.646     c1.996-1.83,4.393-2.747,7.197-2.747C313.1,79.806,315.826,80.549,318.529,82.035z"/></g><g><path fill="#80C0C5" d="M33.964,130.237h2.244v16.762h-2.411v-13.042l-5.154,6.48h-0.445l-5.212-6.48v13.042h-2.4v-16.762h2.272     l5.57,6.885L33.964,130.237z"/><path fill="#80C0C5" d="M45.472,130.237h9.502v2.136h-7.104v5.112h6.863v2.146h-6.863v5.208h7.332v2.136h-9.73V130.237z"/><path fill="#80C0C5" d="M63.435,146.976v-16.738h5.651c2.28,0,4.083,0.342,5.412,1.024c1.328,0.687,2.384,1.69,3.167,3.019     c0.783,1.329,1.175,2.776,1.175,4.345c0,1.119-0.216,2.191-0.648,3.215c-0.432,1.024-1.047,1.925-1.848,2.7     c-0.815,0.8-1.764,1.403-2.843,1.811c-0.632,0.249-1.212,0.414-1.74,0.5c-0.528,0.082-1.536,0.125-3.023,0.125H63.435z      M68.834,132.373h-3v12.467h3.071c1.2,0,2.132-0.081,2.796-0.246c0.664-0.163,1.218-0.373,1.663-0.622     c0.442-0.255,0.85-0.563,1.217-0.932c1.184-1.2,1.776-2.716,1.776-4.548c0-1.8-0.608-3.269-1.824-4.404     c-0.448-0.423-0.962-0.771-1.542-1.043c-0.58-0.272-1.129-0.452-1.649-0.539C70.822,132.417,69.986,132.373,68.834,132.373z"/><path fill="#80C0C5" d="M87.516,130.237h2.4v16.762h-2.4V130.237z"/><path fill="#80C0C5" d="M103.439,139.977l-1.824-1.107c-1.144-0.7-1.958-1.386-2.442-2.063c-0.484-0.675-0.726-1.453-0.726-2.333     c0-1.319,0.457-2.392,1.374-3.215c0.916-0.825,2.106-1.236,3.57-1.236c1.4,0,2.684,0.395,3.852,1.179v2.723     c-1.208-1.161-2.508-1.741-3.899-1.741c-0.785,0-1.429,0.181-1.932,0.544c-0.504,0.361-0.756,0.825-0.756,1.393     c0,0.502,0.186,0.973,0.558,1.408c0.371,0.439,0.968,0.899,1.791,1.382l1.833,1.083c2.044,1.223,3.066,2.776,3.066,4.666     c0,1.343-0.451,2.435-1.35,3.274c-0.9,0.84-2.07,1.26-3.51,1.26c-1.655,0-3.164-0.51-4.523-1.526v-3.049     c1.296,1.643,2.796,2.464,4.5,2.464c0.752,0,1.377-0.21,1.879-0.628c0.499-0.419,0.75-0.943,0.75-1.572     C105.647,141.86,104.911,140.892,103.439,139.977z"/><path fill="#80C0C5" d="M130.641,143.111v2.641c-1.76,0.959-3.792,1.439-6.095,1.439c-1.872,0-3.46-0.376-4.763-1.128     c-1.304-0.752-2.336-1.787-3.096-3.107c-0.76-1.319-1.14-2.748-1.14-4.283c0-2.439,0.869-4.492,2.61-6.155     c1.738-1.665,3.885-2.496,6.437-2.496c1.76,0,3.715,0.46,5.867,1.38v2.58c-1.959-1.12-3.875-1.681-5.747-1.681     c-1.92,0-3.515,0.606-4.78,1.817c-1.27,1.213-1.903,2.729-1.903,4.555c0,1.839,0.624,3.352,1.872,4.535     c1.248,1.185,2.844,1.776,4.787,1.776C126.722,144.984,128.705,144.36,130.641,143.111z"/><path fill="#80C0C5" d="M151.062,130.237h2.4v16.762h-2.4v-7.294h-9.418v7.294h-2.4v-16.762h2.4v7.248h9.418V130.237z"/><path fill="#80C0C5" d="M189.736,143.111v2.641c-1.76,0.959-3.793,1.439-6.096,1.439c-1.871,0-3.459-0.376-4.764-1.128     c-1.303-0.752-2.334-1.787-3.096-3.107c-0.76-1.319-1.139-2.748-1.139-4.283c0-2.439,0.869-4.492,2.609-6.155     c1.738-1.665,3.885-2.496,6.438-2.496c1.76,0,3.715,0.46,5.867,1.38v2.58c-1.959-1.12-3.875-1.681-5.746-1.681     c-1.922,0-3.516,0.606-4.783,1.817c-1.268,1.213-1.902,2.729-1.902,4.555c0,1.839,0.625,3.352,1.873,4.535     c1.246,1.185,2.844,1.776,4.787,1.776C185.816,144.984,187.801,144.36,189.736,143.111z"/><path fill="#80C0C5" d="M198.34,130.237h9.502v2.136h-7.102v5.112h6.861v2.146h-6.861v5.208h7.33v2.136h-9.73V130.237z"/><path fill="#80C0C5" d="M229.6,130.237h2.279v16.762h-2.064l-11.207-12.909v12.909h-2.256v-16.762h1.945l11.303,13.019V130.237z"/><path fill="#80C0C5" d="M239.691,130.213h14v2.136h-5.842v14.65h-2.412v-14.65h-5.746V130.213z"/><path fill="#80C0C5" d="M261.684,146.999v-16.762h4.199c1.695,0,3.043,0.421,4.037,1.26c0.996,0.84,1.496,1.977,1.496,3.408     c0,0.975-0.246,1.819-0.734,2.531s-1.186,1.244-2.098,1.596c0.533,0.352,1.059,0.833,1.57,1.44s1.232,1.667,2.16,3.18     c0.584,0.951,1.051,1.667,1.404,2.146l0.885,1.2h-2.852l-0.734-1.103c-0.021-0.04-0.07-0.109-0.143-0.206l-0.467-0.661     l-0.744-1.223l-0.803-1.31c-0.492-0.688-0.949-1.235-1.359-1.642c-0.414-0.408-0.787-0.702-1.117-0.882     c-0.334-0.179-0.893-0.269-1.678-0.269h-0.623v7.294H261.684z M264.803,132.277h-0.719v5.291h0.91     c1.217,0,2.051-0.104,2.502-0.312c0.453-0.209,0.805-0.522,1.057-0.942c0.252-0.421,0.377-0.897,0.377-1.434     c0-0.527-0.141-1.005-0.42-1.435c-0.279-0.427-0.672-0.729-1.182-0.905C266.82,132.365,265.979,132.277,264.803,132.277z"/><path fill="#80C0C5" d="M293.037,130.237h2.414v9.515c0,1.288-0.098,2.26-0.283,2.916c-0.189,0.655-0.422,1.202-0.697,1.638     c-0.275,0.438-0.613,0.825-1.014,1.171c-1.328,1.144-3.064,1.715-5.205,1.715c-2.188,0-3.936-0.567-5.26-1.704     c-0.4-0.352-0.734-0.744-1.012-1.182c-0.275-0.436-0.504-0.97-0.684-1.602c-0.182-0.633-0.271-1.624-0.271-2.976v-9.491h2.412     v9.515c0,1.576,0.18,2.672,0.541,3.288c0.359,0.615,0.908,1.11,1.645,1.482c0.736,0.37,1.602,0.558,2.602,0.558     c1.424,0,2.584-0.372,3.482-1.116c0.471-0.401,0.811-0.872,1.02-1.417c0.207-0.543,0.311-1.475,0.311-2.795V130.237z"/><path fill="#80C0C5" d="M317.754,130.237H320v16.762h-2.41v-13.042l-5.154,6.48h-0.445l-5.213-6.48v13.042h-2.4v-16.762h2.273     l5.568,6.885L317.754,130.237z"/></g></g><g><g><linearGradient id="SVGID_1_" gradientUnits="userSpaceOnUse" x1="159.6855" y1="30.6118" x2="210.4231" y2="62.4472"><stop offset="0" style="stop-color:#80C0C5"/><stop offset="0.2666" style="stop-color:#7AB9C0"/><stop offset="0.6632" style="stop-color:#68A4B1"/><stop offset="1" style="stop-color:#558EA1"/></linearGradient><path fill="url(#SVGID_1_)" d="M204.709,55.31c-0.525-0.29-1.094-0.424-1.654-0.421c-1.217-0.021-2.406,0.615-3.035,1.756     c-2.227,4.037-3.84,4.188-4.443,4.194c-3.846-0.007-6.912-9.271-9.377-16.715c-3.293-9.954-6.701-20.214-14.494-21.276     c-0.072-0.011-0.145-0.023-0.219-0.032c-0.023-0.002-0.043-0.007-0.066-0.01v0.004c-0.367-0.042-0.742-0.066-1.129-0.066     c-4.882,0-8.16,3.376-10.709,8.183c1.328,2.79,2.453,5.875,3.509,8.99c2.036-5.51,4.413-10.372,7.2-10.372     c1.77,0,3.375,1.964,4.832,4.806l0.033-0.074c1.725,3.344,3.246,7.933,4.586,11.984c1.527,4.612,3.076,9.293,5.076,13.095     l-0.029,0.077c2.551,4.82,5.83,8.208,10.721,8.208c0.012,0,0.021-0.002,0.033-0.002c0.014,0,0.025,0.002,0.037,0.002     c4.123,0,7.643-2.595,10.465-7.711C206.951,58.285,206.354,56.216,204.709,55.31z"/><linearGradient id="SVGID_2_" gradientUnits="userSpaceOnUse" x1="220.2871" y1="26.3945" x2="185.4693" y2="32.3633"><stop offset="0" style="stop-color:#80C0C5"/><stop offset="0.2666" style="stop-color:#7AB9C0"/><stop offset="0.6632" style="stop-color:#68A4B1"/><stop offset="1" style="stop-color:#558EA1"/></linearGradient><path fill="url(#SVGID_2_)" d="M195.512,29.545c0.551,0,2.225,0,4.568,4.305c0.9,1.649,2.965,2.257,4.613,1.359     c1.65-0.899,2.258-2.964,1.359-4.613c-1.057-1.942-4.277-7.852-10.541-7.852c-4.885,0-8.16,3.377-10.709,8.186     c1.326,2.791,2.451,5.875,3.508,8.991C190.348,34.409,192.725,29.545,195.512,29.545z"/><linearGradient id="SVGID_3_" gradientUnits="userSpaceOnUse" x1="145.3848" y1="53.0459" x2="167.9346" y2="39.1181"><stop offset="0" style="stop-color:#80C0C5"/><stop offset="0.2666" style="stop-color:#7AB9C0"/><stop offset="0.6632" style="stop-color:#68A4B1"/><stop offset="1" style="stop-color:#558EA1"/></linearGradient><path fill="url(#SVGID_3_)" d="M170.295,60.839c-2.231,0-4.199-3.116-5.94-7.185l-0.012,0.02     c-1.267-2.954-2.413-6.413-3.451-9.551c-1.886-5.697-3.808-11.494-6.565-15.614l0.014-0.015     c-1.855-2.767-4.092-4.769-6.948-5.472c-0.002,0-0.005-0.001-0.007-0.002c-0.239-0.058-0.481-0.108-0.729-0.148     c-0.008-0.001-0.016-0.003-0.023-0.004c-0.252-0.04-0.508-0.072-0.77-0.092c0,0-0.001,0-0.002,0     c-0.258-0.02-0.518-0.032-0.785-0.032v0c-0.003,0-0.008,0-0.011,0c-0.003,0-0.007,0-0.01,0v0     c-1.174,0.001-7.838,0.552-10.144,12.598c-0.027,0.141-0.042,0.283-0.051,0.423c-0.492,2.738-0.741,5.881-0.741,9.427     c0,9.701,1.848,16.412,5.493,19.947c2.394,2.322,4.789,2.5,5.463,2.501l0,0c4.882,0,8.16-3.376,10.708-8.184     c-1.328-2.79-2.452-5.874-3.508-8.989c-2.002,5.416-4.333,10.206-7.059,10.368c-0.478-0.177-4.296-2.038-4.296-15.643     c0-13.553,3.789-15.451,4.291-15.64c3.775,0.245,6.794,9.362,9.226,16.709c2.709,8.182,5.492,16.572,10.726,19.89     c0.017,0.011,0.034,0.021,0.052,0.031c0.183,0.114,0.368,0.224,0.557,0.325c0.061,0.033,0.123,0.064,0.186,0.096     c0.146,0.074,0.293,0.147,0.443,0.214c0.095,0.044,0.191,0.082,0.287,0.122c0.119,0.048,0.238,0.096,0.36,0.14     c0.124,0.044,0.249,0.085,0.375,0.125c0.097,0.03,0.193,0.06,0.291,0.086c0.151,0.042,0.304,0.081,0.459,0.114     c0.073,0.018,0.147,0.031,0.223,0.047c0.179,0.035,0.36,0.066,0.545,0.092c0.021,0.002,0.04,0.007,0.062,0.01V67.55     c0.42,0.056,0.848,0.091,1.295,0.091c4.881,0,8.158-3.375,10.707-8.182c-1.328-2.789-2.453-5.873-3.51-8.988     C175.457,55.979,173.08,60.839,170.295,60.839z"/></g><g><path opacity="0.2" fill="#FFFFFF" d="M155.703,59.592c0.025-0.046,0.053-0.088,0.078-0.135     c-1.242-2.609-2.297-5.482-3.295-8.391C153.48,54.032,154.521,56.944,155.703,59.592z"/></g><path opacity="0.4" fill="#FFFFFF" d="M179.76,56.617c-1.346,2.301-4.592,6.881-9.082,6.881c-5.998,0-9.479-5.43-14.072-21.518    c-4.595-16.088-12.109-16.573-14.215-16.573c-2.106,0-4.167,1.443-4.167,1.443s-0.002-0.007-0.002-0.008    c-1.34,1.863-2.559,4.565-3.312,8.5c-0.027,0.141-0.042,0.283-0.051,0.423c-0.492,2.738-0.741,5.881-0.741,9.427    c0,9.701,1.848,16.412,5.493,19.947c2.394,2.322,4.789,2.5,5.463,2.501l0,0c4.882,0,8.16-3.376,10.708-8.184    c-0.713-1.496-1.362-3.079-1.978-4.704c-2.354,8.916-8.594,8.745-8.594,8.745c-3.444,0-6.888-3.061-6.888-18.605    c0-15.544,6.886-15.341,6.888-15.341h0c3.775,0.245,6.794,9.362,9.226,16.709c2.709,8.182,5.492,16.572,10.726,19.89    c0.017,0.011,0.034,0.021,0.052,0.031c0.182,0.114,0.368,0.224,0.557,0.325c0.061,0.033,0.124,0.064,0.186,0.096    c0.146,0.074,0.293,0.147,0.443,0.214c0.095,0.044,0.191,0.082,0.287,0.122c0.119,0.048,0.238,0.096,0.36,0.14    c0.124,0.044,0.249,0.085,0.375,0.125c0.097,0.03,0.193,0.06,0.291,0.085c0.151,0.043,0.304,0.082,0.459,0.115    c0.073,0.018,0.147,0.031,0.223,0.047c0.179,0.035,0.36,0.066,0.545,0.092c0.021,0.002,0.04,0.007,0.062,0.01V67.55    c0.419,0.056,0.848,0.091,1.295,0.091c4.881,0,8.158-3.375,10.707-8.182C180.564,58.543,180.158,57.587,179.76,56.617z"/><path opacity="0.4" fill="#FFFFFF" d="M205.557,55.993c-3.467,6.613-7.756,7.505-9.922,7.505c-2.289,0-7.887,0.356-12.1-16.711    c-4.211-17.067-10.637-21.379-15.153-21.379c-2.263,0-4.466,0.708-6.103,1.415c-0.992,1.181-1.882,2.568-2.697,4.104    c1.328,2.79,2.453,5.875,3.509,8.99c2.036-5.51,4.413-10.372,7.2-10.372c1.77,0,3.375,1.964,4.832,4.806l0.033-0.074    c1.725,3.344,3.246,7.933,4.586,11.984c1.527,4.612,3.076,9.293,5.076,13.095l-0.029,0.077c2.551,4.82,5.83,8.208,10.721,8.208    c0.012,0,0.021-0.002,0.033-0.002c0.014,0,0.025,0.002,0.037,0.002c4.123,0,7.643-2.595,10.465-7.711    C206.77,58.615,206.52,57.039,205.557,55.993z"/><path opacity="0.4" fill="#FFFFFF" d="M193.852,25.407c-5.33,0-6.789,1.974-6.789,1.974l-0.002-0.009    c-0.818,1.056-1.566,2.251-2.258,3.558c1.326,2.791,2.451,5.875,3.508,8.991c2.037-5.511,4.414-10.375,7.201-10.375    c0.551,0,2.225,0,4.568,4.305c0.852,1.564,2.752,2.174,4.352,1.47C202.377,30.288,197.617,25.407,193.852,25.407z"/></g></g></svg>